<svg id="svg" fill="#000000" stroke="#000000" width="200px" height="200px" version="1.1" viewBox="144 144 512 512" xmlns="http://www.w3.org/2000/svg">
    <g id="IconSvg_bgCarrier" stroke-width="0"></g>
    <g id="IconSvg_tracerCarrier" stroke-linecap="round" stroke-linejoin="round" stroke="#CCCCCC"></g>
     <g id="IconSvg_iconCarrier">
      <path xmlns="http://www.w3.org/2000/svg" d="m251.69 173.29c-10.086-0.32031-19.574 3.9648-29.285 10.074-0.91016 0.58984-1.7539 1.2773-2.5195 2.0469-47.598 47.598-55.07 108.38-37.785 165.94 17.281 57.566 57.438 113.64 105.17 161.38 47.734 47.734 103.81 87.887 161.38 105.17 57.562 17.285 118.34 9.8125 165.94-37.785 0.78125-0.8125 1.4648-1.7109 2.0469-2.6758 6.9805-11.098 11.582-21.973 9.6055-33.691-1.9805-11.719-9.2148-19.605-17.32-27.711l-64.234-64.234c-4.9141-4.9141-13.316-7.375-19.523-6.457-6.207 0.92188-10.543 3.5547-14.484 6.3008-7.8828 5.4844-14.445 12.703-21.098 19.52-6.6523 6.8164-13.297 13.238-17.949 16.531-1.8047 1.2812-2.7578 1.5938-3.4609 1.8906-22.875-12.559-57.227-40.559-87.539-70.062-0.050781-0.054687-0.10547-0.10156-0.15625-0.15625-0.054687-0.050781-0.10547-0.10547-0.15625-0.15625-29.504-30.312-57.348-64.664-69.906-87.539 0.29688-0.70703 0.60938-1.6562 1.8906-3.4609 3.293-4.6562 9.7148-11.141 16.531-17.793 6.8164-6.6523 13.879-13.371 19.363-21.254 2.7461-3.9414 5.3789-8.2773 6.3008-14.484 0.91797-6.207-1.543-14.609-6.457-19.523l-64.234-64.234c-8.1055-8.1055-15.992-15.34-27.711-17.32-1.4648-0.24609-2.9688-0.26953-4.4062-0.3125zm-0.63281 30.227c0.92578 0.15625 4.5586 1.8828 11.496 8.8164l60.297 60.301c-2.75 3.7578-8.5273 9.6328-15.113 16.059-6.8516 6.6875-14.301 13.777-20.152 22.043-2.9258 4.1328-5.6172 8.668-7.0859 14.328-1.4688 5.6562-1.2656 12.992 2.0469 19.207 15.227 28.574 45.145 64.156 76.516 96.352 0.054688 0.10547 0.10547 0.21094 0.16016 0.31641 32.195 31.375 67.777 61.289 96.352 76.516 6.2148 3.3125 13.711 3.3594 19.367 1.8906s10.035-4.0039 14.168-6.9297c8.2656-5.8516 15.355-13.297 22.043-20.152 6.4297-6.5859 12.457-12.363 16.215-15.113l60.145 60.301c6.9336 6.9336 8.8164 10.41 8.9727 11.336 0.14062 0.83203-1.0273 4.5039-5.0391 11.336-39.582 38.492-84.613 43.68-134.14 28.809-50.215-15.074-103.31-52.301-148.62-97.613-45.312-45.309-82.695-98.406-97.77-148.62-14.883-49.562-9.7578-94.691 28.809-134.3 6.9883-4.1367 10.496-5.0234 11.336-4.8828z"></path>

      </g>
      </svg>